<?xml version="1.0" encoding="UTF-8"?>
<svg xmlns="http://www.w3.org/2000/svg" width="1080" height="825" viewBox="0 0 1080 825" role="img" aria-labelledby="title desc"><title id="title">Aliasing: two continuous signals, one sample sequence</title><desc id="desc">Mathematically plotted thirty-kilohertz and eighteen-kilohertz cosines sampled at forty-eight kilohertz from zero to two hundred fifty microseconds. All thirteen sample dots coincide.</desc><defs><marker id="ink" viewBox="0 0 10 10" refX="9" refY="5" markerWidth="8" markerHeight="8" orient="auto-start-reverse"><path d="M 0 0 L 10 5 L 0 10 z" fill="#192c3b"/></marker><marker id="blue" viewBox="0 0 10 10" refX="9" refY="5" markerWidth="8" markerHeight="8" orient="auto-start-reverse"><path d="M 0 0 L 10 5 L 0 10 z" fill="#086fa0"/></marker><marker id="green" viewBox="0 0 10 10" refX="9" refY="5" markerWidth="8" markerHeight="8" orient="auto-start-reverse"><path d="M 0 0 L 10 5 L 0 10 z" fill="#0f766e"/></marker><marker id="orange" viewBox="0 0 10 10" refX="9" refY="5" markerWidth="8" markerHeight="8" orient="auto-start-reverse"><path d="M 0 0 L 10 5 L 0 10 z" fill="#b85d13"/></marker><marker id="purple" viewBox="0 0 10 10" refX="9" refY="5" markerWidth="8" markerHeight="8" orient="auto-start-reverse"><path d="M 0 0 L 10 5 L 0 10 z" fill="#74479a"/></marker></defs><style>text{font-family:Arial,DejaVu Sans,sans-serif}path,line{stroke-linecap:round}</style><rect width="1080" height="825" fill="white"/><text x="35" y="44" font-size="28" fill="#192c3b" text-anchor="start" font-weight="700">Aliasing: two continuous signals, one sample sequence</text><text x="35" y="83" font-size="19" fill="#536777" text-anchor="start" font-weight="400">48 kHz sampling: a 30 kHz cosine and an 18 kHz cosine give the same sample values.</text><line x1="100" y1="480" x2="1000" y2="480" stroke="#cad4dc" stroke-width="1"/><text x="83" y="486" font-size="17" fill="#536777" text-anchor="end" font-weight="400">-1.0</text><line x1="100" y1="395" x2="1000" y2="395" stroke="#cad4dc" stroke-width="1"/><text x="83" y="401" font-size="17" fill="#536777" text-anchor="end" font-weight="400">-0.5</text><line x1="100" y1="310" x2="1000" y2="310" stroke="#cad4dc" stroke-width="1"/><text x="83" y="316" font-size="17" fill="#536777" text-anchor="end" font-weight="400">0.0</text><line x1="100" y1="225" x2="1000" y2="225" stroke="#cad4dc" stroke-width="1"/><text x="83" y="231" font-size="17" fill="#536777" text-anchor="end" font-weight="400">0.5</text><line x1="100" y1="140" x2="1000" y2="140" stroke="#cad4dc" stroke-width="1"/><text x="83" y="146" font-size="17" fill="#536777" text-anchor="end" font-weight="400">1.0</text><line x1="100" y1="120" x2="100" y2="510" stroke="#192c3b" stroke-width="2"/><line x1="100" y1="310" x2="1015" y2="310" stroke="#192c3b" stroke-width="2" marker-end="url(#ink)"/><line x1="100" y1="500" x2="100" y2="507" stroke="#192c3b" stroke-width="1.5"/><text x="100" y="535" font-size="18" fill="#536777" text-anchor="middle" font-weight="400">0</text><line x1="280" y1="500" x2="280" y2="507" stroke="#192c3b" stroke-width="1.5"/><text x="280" y="535" font-size="18" fill="#536777" text-anchor="middle" font-weight="400">50</text><line x1="460" y1="500" x2="460" y2="507" stroke="#192c3b" stroke-width="1.5"/><text x="460" y="535" font-size="18" fill="#536777" text-anchor="middle" font-weight="400">100</text><line x1="640" y1="500" x2="640" y2="507" stroke="#192c3b" stroke-width="1.5"/><text x="640" y="535" font-size="18" fill="#536777" text-anchor="middle" font-weight="400">150</text><line x1="820" y1="500" x2="820" y2="507" stroke="#192c3b" stroke-width="1.5"/><text x="820" y="535" font-size="18" fill="#536777" text-anchor="middle" font-weight="400">200</text><line x1="1000" y1="500" x2="1000" y2="507" stroke="#192c3b" stroke-width="1.5"/><text x="1000" y="535" font-size="18" fill="#536777" text-anchor="middle" font-weight="400">250</text><text x="1000" y="574" font-size="19" fill="#536777" text-anchor="end" font-weight="400">time (microseconds)</text><text x="35" y="113" font-size="18" fill="#536777" text-anchor="start" font-weight="400">amplitude</text><path d="M 100.00 140.00 L 100.50 140.06 L 101.00 140.23 L 101.50 140.52 L 102.00 140.93 L 102.50 141.45 L 103.00 142.09 L 103.50 142.85 L 104.00 143.71 L 104.50 144.70 L 105.00 145.79 L 105.50 147.00 L 106.00 148.32 L 106.50 149.75 L 107.00 151.29 L 107.50 152.94 L 108.00 154.70 L 108.50 156.56 L 109.00 158.53 L 109.50 160.60 L 110.00 162.78 L 110.50 165.05 L 111.00 167.43 L 111.50 169.90 L 112.00 172.47 L 112.50 175.13 L 113.00 177.89 L 113.50 180.73 L 114.00 183.67 L 114.50 186.69 L 115.00 189.79 L 115.50 192.98 L 116.00 196.25 L 116.50 199.59 L 117.00 203.02 L 117.50 206.51 L 118.00 210.08 L 118.50 213.71 L 119.00 217.41 L 119.50 221.18 L 120.00 225.00 L 120.50 228.88 L 121.00 232.82 L 121.50 236.81 L 122.00 240.85 L 122.50 244.94 L 123.00 249.08 L 123.50 253.25 L 124.00 257.47 L 124.50 261.72 L 125.00 266.00 L 125.50 270.31 L 126.00 274.66 L 126.50 279.02 L 127.00 283.41 L 127.50 287.81 L 128.00 292.23 L 128.50 296.66 L 129.00 301.10 L 129.50 305.55 L 130.00 310.00 L 130.50 314.45 L 131.00 318.90 L 131.50 323.34 L 132.00 327.77 L 132.50 332.19 L 133.00 336.59 L 133.50 340.98 L 134.00 345.34 L 134.50 349.69 L 135.00 354.00 L 135.50 358.28 L 136.00 362.53 L 136.50 366.75 L 137.00 370.92 L 137.50 375.06 L 138.00 379.15 L 138.50 383.19 L 139.00 387.18 L 139.50 391.12 L 140.00 395.00 L 140.50 398.82 L 141.00 402.59 L 141.50 406.29 L 142.00 409.92 L 142.50 413.49 L 143.00 416.98 L 143.50 420.41 L 144.00 423.75 L 144.50 427.02 L 145.00 430.21 L 145.50 433.31 L 146.00 436.33 L 146.50 439.27 L 147.00 442.11 L 147.50 444.87 L 148.00 447.53 L 148.50 450.10 L 149.00 452.57 L 149.50 454.95 L 150.00 457.22 L 150.50 459.40 L 151.00 461.47 L 151.50 463.44 L 152.00 465.30 L 152.50 467.06 L 153.00 468.71 L 153.50 470.25 L 154.00 471.68 L 154.50 473.00 L 155.00 474.21 L 155.50 475.30 L 156.00 476.29 L 156.50 477.15 L 157.00 477.91 L 157.50 478.55 L 158.00 479.07 L 158.50 479.48 L 159.00 479.77 L 159.50 479.94 L 160.00 480.00 L 160.50 479.94 L 161.00 479.77 L 161.50 479.48 L 162.00 479.07 L 162.50 478.55 L 163.00 477.91 L 163.50 477.15 L 164.00 476.29 L 164.50 475.30 L 165.00 474.21 L 165.50 473.00 L 166.00 471.68 L 166.50 470.25 L 167.00 468.71 L 167.50 467.06 L 168.00 465.30 L 168.50 463.44 L 169.00 461.47 L 169.50 459.40 L 170.00 457.22 L 170.50 454.95 L 171.00 452.57 L 171.50 450.10 L 172.00 447.53 L 172.50 444.87 L 173.00 442.11 L 173.50 439.27 L 174.00 436.33 L 174.50 433.31 L 175.00 430.21 L 175.50 427.02 L 176.00 423.75 L 176.50 420.41 L 177.00 416.98 L 177.50 413.49 L 178.00 409.92 L 178.50 406.29 L 179.00 402.59 L 179.50 398.82 L 180.00 395.00 L 180.50 391.12 L 181.00 387.18 L 181.50 383.19 L 182.00 379.15 L 182.50 375.06 L 183.00 370.92 L 183.50 366.75 L 184.00 362.53 L 184.50 358.28 L 185.00 354.00 L 185.50 349.69 L 186.00 345.34 L 186.50 340.98 L 187.00 336.59 L 187.50 332.19 L 188.00 327.77 L 188.50 323.34 L 189.00 318.90 L 189.50 314.45 L 190.00 310.00 L 190.50 305.55 L 191.00 301.10 L 191.50 296.66 L 192.00 292.23 L 192.50 287.81 L 193.00 283.41 L 193.50 279.02 L 194.00 274.66 L 194.50 270.31 L 195.00 266.00 L 195.50 261.72 L 196.00 257.47 L 196.50 253.25 L 197.00 249.08 L 197.50 244.94 L 198.00 240.85 L 198.50 236.81 L 199.00 232.82 L 199.50 228.88 L 200.00 225.00 L 200.50 221.18 L 201.00 217.41 L 201.50 213.71 L 202.00 210.08 L 202.50 206.51 L 203.00 203.02 L 203.50 199.59 L 204.00 196.25 L 204.50 192.98 L 205.00 189.79 L 205.50 186.69 L 206.00 183.67 L 206.50 180.73 L 207.00 177.89 L 207.50 175.13 L 208.00 172.47 L 208.50 169.90 L 209.00 167.43 L 209.50 165.05 L 210.00 162.78 L 210.50 160.60 L 211.00 158.53 L 211.50 156.56 L 212.00 154.70 L 212.50 152.94 L 213.00 151.29 L 213.50 149.75 L 214.00 148.32 L 214.50 147.00 L 215.00 145.79 L 215.50 144.70 L 216.00 143.71 L 216.50 142.85 L 217.00 142.09 L 217.50 141.45 L 218.00 140.93 L 218.50 140.52 L 219.00 140.23 L 219.50 140.06 L 220.00 140.00 L 220.50 140.06 L 221.00 140.23 L 221.50 140.52 L 222.00 140.93 L 222.50 141.45 L 223.00 142.09 L 223.50 142.85 L 224.00 143.71 L 224.50 144.70 L 225.00 145.79 L 225.50 147.00 L 226.00 148.32 L 226.50 149.75 L 227.00 151.29 L 227.50 152.94 L 228.00 154.70 L 228.50 156.56 L 229.00 158.53 L 229.50 160.60 L 230.00 162.78 L 230.50 165.05 L 231.00 167.43 L 231.50 169.90 L 232.00 172.47 L 232.50 175.13 L 233.00 177.89 L 233.50 180.73 L 234.00 183.67 L 234.50 186.69 L 235.00 189.79 L 235.50 192.98 L 236.00 196.25 L 236.50 199.59 L 237.00 203.02 L 237.50 206.51 L 238.00 210.08 L 238.50 213.71 L 239.00 217.41 L 239.50 221.18 L 240.00 225.00 L 240.50 228.88 L 241.00 232.82 L 241.50 236.81 L 242.00 240.85 L 242.50 244.94 L 243.00 249.08 L 243.50 253.25 L 244.00 257.47 L 244.50 261.72 L 245.00 266.00 L 245.50 270.31 L 246.00 274.66 L 246.50 279.02 L 247.00 283.41 L 247.50 287.81 L 248.00 292.23 L 248.50 296.66 L 249.00 301.10 L 249.50 305.55 L 250.00 310.00 L 250.50 314.45 L 251.00 318.90 L 251.50 323.34 L 252.00 327.77 L 252.50 332.19 L 253.00 336.59 L 253.50 340.98 L 254.00 345.34 L 254.50 349.69 L 255.00 354.00 L 255.50 358.28 L 256.00 362.53 L 256.50 366.75 L 257.00 370.92 L 257.50 375.06 L 258.00 379.15 L 258.50 383.19 L 259.00 387.18 L 259.50 391.12 L 260.00 395.00 L 260.50 398.82 L 261.00 402.59 L 261.50 406.29 L 262.00 409.92 L 262.50 413.49 L 263.00 416.98 L 263.50 420.41 L 264.00 423.75 L 264.50 427.02 L 265.00 430.21 L 265.50 433.31 L 266.00 436.33 L 266.50 439.27 L 267.00 442.11 L 267.50 444.87 L 268.00 447.53 L 268.50 450.10 L 269.00 452.57 L 269.50 454.95 L 270.00 457.22 L 270.50 459.40 L 271.00 461.47 L 271.50 463.44 L 272.00 465.30 L 272.50 467.06 L 273.00 468.71 L 273.50 470.25 L 274.00 471.68 L 274.50 473.00 L 275.00 474.21 L 275.50 475.30 L 276.00 476.29 L 276.50 477.15 L 277.00 477.91 L 277.50 478.55 L 278.00 479.07 L 278.50 479.48 L 279.00 479.77 L 279.50 479.94 L 280.00 480.00 L 280.50 479.94 L 281.00 479.77 L 281.50 479.48 L 282.00 479.07 L 282.50 478.55 L 283.00 477.91 L 283.50 477.15 L 284.00 476.29 L 284.50 475.30 L 285.00 474.21 L 285.50 473.00 L 286.00 471.68 L 286.50 470.25 L 287.00 468.71 L 287.50 467.06 L 288.00 465.30 L 288.50 463.44 L 289.00 461.47 L 289.50 459.40 L 290.00 457.22 L 290.50 454.95 L 291.00 452.57 L 291.50 450.10 L 292.00 447.53 L 292.50 444.87 L 293.00 442.11 L 293.50 439.27 L 294.00 436.33 L 294.50 433.31 L 295.00 430.21 L 295.50 427.02 L 296.00 423.75 L 296.50 420.41 L 297.00 416.98 L 297.50 413.49 L 298.00 409.92 L 298.50 406.29 L 299.00 402.59 L 299.50 398.82 L 300.00 395.00 L 300.50 391.12 L 301.00 387.18 L 301.50 383.19 L 302.00 379.15 L 302.50 375.06 L 303.00 370.92 L 303.50 366.75 L 304.00 362.53 L 304.50 358.28 L 305.00 354.00 L 305.50 349.69 L 306.00 345.34 L 306.50 340.98 L 307.00 336.59 L 307.50 332.19 L 308.00 327.77 L 308.50 323.34 L 309.00 318.90 L 309.50 314.45 L 310.00 310.00 L 310.50 305.55 L 311.00 301.10 L 311.50 296.66 L 312.00 292.23 L 312.50 287.81 L 313.00 283.41 L 313.50 279.02 L 314.00 274.66 L 314.50 270.31 L 315.00 266.00 L 315.50 261.72 L 316.00 257.47 L 316.50 253.25 L 317.00 249.08 L 317.50 244.94 L 318.00 240.85 L 318.50 236.81 L 319.00 232.82 L 319.50 228.88 L 320.00 225.00 L 320.50 221.18 L 321.00 217.41 L 321.50 213.71 L 322.00 210.08 L 322.50 206.51 L 323.00 203.02 L 323.50 199.59 L 324.00 196.25 L 324.50 192.98 L 325.00 189.79 L 325.50 186.69 L 326.00 183.67 L 326.50 180.73 L 327.00 177.89 L 327.50 175.13 L 328.00 172.47 L 328.50 169.90 L 329.00 167.43 L 329.50 165.05 L 330.00 162.78 L 330.50 160.60 L 331.00 158.53 L 331.50 156.56 L 332.00 154.70 L 332.50 152.94 L 333.00 151.29 L 333.50 149.75 L 334.00 148.32 L 334.50 147.00 L 335.00 145.79 L 335.50 144.70 L 336.00 143.71 L 336.50 142.85 L 337.00 142.09 L 337.50 141.45 L 338.00 140.93 L 338.50 140.52 L 339.00 140.23 L 339.50 140.06 L 340.00 140.00 L 340.50 140.06 L 341.00 140.23 L 341.50 140.52 L 342.00 140.93 L 342.50 141.45 L 343.00 142.09 L 343.50 142.85 L 344.00 143.71 L 344.50 144.70 L 345.00 145.79 L 345.50 147.00 L 346.00 148.32 L 346.50 149.75 L 347.00 151.29 L 347.50 152.94 L 348.00 154.70 L 348.50 156.56 L 349.00 158.53 L 349.50 160.60 L 350.00 162.78 L 350.50 165.05 L 351.00 167.43 L 351.50 169.90 L 352.00 172.47 L 352.50 175.13 L 353.00 177.89 L 353.50 180.73 L 354.00 183.67 L 354.50 186.69 L 355.00 189.79 L 355.50 192.98 L 356.00 196.25 L 356.50 199.59 L 357.00 203.02 L 357.50 206.51 L 358.00 210.08 L 358.50 213.71 L 359.00 217.41 L 359.50 221.18 L 360.00 225.00 L 360.50 228.88 L 361.00 232.82 L 361.50 236.81 L 362.00 240.85 L 362.50 244.94 L 363.00 249.08 L 363.50 253.25 L 364.00 257.47 L 364.50 261.72 L 365.00 266.00 L 365.50 270.31 L 366.00 274.66 L 366.50 279.02 L 367.00 283.41 L 367.50 287.81 L 368.00 292.23 L 368.50 296.66 L 369.00 301.10 L 369.50 305.55 L 370.00 310.00 L 370.50 314.45 L 371.00 318.90 L 371.50 323.34 L 372.00 327.77 L 372.50 332.19 L 373.00 336.59 L 373.50 340.98 L 374.00 345.34 L 374.50 349.69 L 375.00 354.00 L 375.50 358.28 L 376.00 362.53 L 376.50 366.75 L 377.00 370.92 L 377.50 375.06 L 378.00 379.15 L 378.50 383.19 L 379.00 387.18 L 379.50 391.12 L 380.00 395.00 L 380.50 398.82 L 381.00 402.59 L 381.50 406.29 L 382.00 409.92 L 382.50 413.49 L 383.00 416.98 L 383.50 420.41 L 384.00 423.75 L 384.50 427.02 L 385.00 430.21 L 385.50 433.31 L 386.00 436.33 L 386.50 439.27 L 387.00 442.11 L 387.50 444.87 L 388.00 447.53 L 388.50 450.10 L 389.00 452.57 L 389.50 454.95 L 390.00 457.22 L 390.50 459.40 L 391.00 461.47 L 391.50 463.44 L 392.00 465.30 L 392.50 467.06 L 393.00 468.71 L 393.50 470.25 L 394.00 471.68 L 394.50 473.00 L 395.00 474.21 L 395.50 475.30 L 396.00 476.29 L 396.50 477.15 L 397.00 477.91 L 397.50 478.55 L 398.00 479.07 L 398.50 479.48 L 399.00 479.77 L 399.50 479.94 L 400.00 480.00 L 400.50 479.94 L 401.00 479.77 L 401.50 479.48 L 402.00 479.07 L 402.50 478.55 L 403.00 477.91 L 403.50 477.15 L 404.00 476.29 L 404.50 475.30 L 405.00 474.21 L 405.50 473.00 L 406.00 471.68 L 406.50 470.25 L 407.00 468.71 L 407.50 467.06 L 408.00 465.30 L 408.50 463.44 L 409.00 461.47 L 409.50 459.40 L 410.00 457.22 L 410.50 454.95 L 411.00 452.57 L 411.50 450.10 L 412.00 447.53 L 412.50 444.87 L 413.00 442.11 L 413.50 439.27 L 414.00 436.33 L 414.50 433.31 L 415.00 430.21 L 415.50 427.02 L 416.00 423.75 L 416.50 420.41 L 417.00 416.98 L 417.50 413.49 L 418.00 409.92 L 418.50 406.29 L 419.00 402.59 L 419.50 398.82 L 420.00 395.00 L 420.50 391.12 L 421.00 387.18 L 421.50 383.19 L 422.00 379.15 L 422.50 375.06 L 423.00 370.92 L 423.50 366.75 L 424.00 362.53 L 424.50 358.28 L 425.00 354.00 L 425.50 349.69 L 426.00 345.34 L 426.50 340.98 L 427.00 336.59 L 427.50 332.19 L 428.00 327.77 L 428.50 323.34 L 429.00 318.90 L 429.50 314.45 L 430.00 310.00 L 430.50 305.55 L 431.00 301.10 L 431.50 296.66 L 432.00 292.23 L 432.50 287.81 L 433.00 283.41 L 433.50 279.02 L 434.00 274.66 L 434.50 270.31 L 435.00 266.00 L 435.50 261.72 L 436.00 257.47 L 436.50 253.25 L 437.00 249.08 L 437.50 244.94 L 438.00 240.85 L 438.50 236.81 L 439.00 232.82 L 439.50 228.88 L 440.00 225.00 L 440.50 221.18 L 441.00 217.41 L 441.50 213.71 L 442.00 210.08 L 442.50 206.51 L 443.00 203.02 L 443.50 199.59 L 444.00 196.25 L 444.50 192.98 L 445.00 189.79 L 445.50 186.69 L 446.00 183.67 L 446.50 180.73 L 447.00 177.89 L 447.50 175.13 L 448.00 172.47 L 448.50 169.90 L 449.00 167.43 L 449.50 165.05 L 450.00 162.78 L 450.50 160.60 L 451.00 158.53 L 451.50 156.56 L 452.00 154.70 L 452.50 152.94 L 453.00 151.29 L 453.50 149.75 L 454.00 148.32 L 454.50 147.00 L 455.00 145.79 L 455.50 144.70 L 456.00 143.71 L 456.50 142.85 L 457.00 142.09 L 457.50 141.45 L 458.00 140.93 L 458.50 140.52 L 459.00 140.23 L 459.50 140.06 L 460.00 140.00 L 460.50 140.06 L 461.00 140.23 L 461.50 140.52 L 462.00 140.93 L 462.50 141.45 L 463.00 142.09 L 463.50 142.85 L 464.00 143.71 L 464.50 144.70 L 465.00 145.79 L 465.50 147.00 L 466.00 148.32 L 466.50 149.75 L 467.00 151.29 L 467.50 152.94 L 468.00 154.70 L 468.50 156.56 L 469.00 158.53 L 469.50 160.60 L 470.00 162.78 L 470.50 165.05 L 471.00 167.43 L 471.50 169.90 L 472.00 172.47 L 472.50 175.13 L 473.00 177.89 L 473.50 180.73 L 474.00 183.67 L 474.50 186.69 L 475.00 189.79 L 475.50 192.98 L 476.00 196.25 L 476.50 199.59 L 477.00 203.02 L 477.50 206.51 L 478.00 210.08 L 478.50 213.71 L 479.00 217.41 L 479.50 221.18 L 480.00 225.00 L 480.50 228.88 L 481.00 232.82 L 481.50 236.81 L 482.00 240.85 L 482.50 244.94 L 483.00 249.08 L 483.50 253.25 L 484.00 257.47 L 484.50 261.72 L 485.00 266.00 L 485.50 270.31 L 486.00 274.66 L 486.50 279.02 L 487.00 283.41 L 487.50 287.81 L 488.00 292.23 L 488.50 296.66 L 489.00 301.10 L 489.50 305.55 L 490.00 310.00 L 490.50 314.45 L 491.00 318.90 L 491.50 323.34 L 492.00 327.77 L 492.50 332.19 L 493.00 336.59 L 493.50 340.98 L 494.00 345.34 L 494.50 349.69 L 495.00 354.00 L 495.50 358.28 L 496.00 362.53 L 496.50 366.75 L 497.00 370.92 L 497.50 375.06 L 498.00 379.15 L 498.50 383.19 L 499.00 387.18 L 499.50 391.12 L 500.00 395.00 L 500.50 398.82 L 501.00 402.59 L 501.50 406.29 L 502.00 409.92 L 502.50 413.49 L 503.00 416.98 L 503.50 420.41 L 504.00 423.75 L 504.50 427.02 L 505.00 430.21 L 505.50 433.31 L 506.00 436.33 L 506.50 439.27 L 507.00 442.11 L 507.50 444.87 L 508.00 447.53 L 508.50 450.10 L 509.00 452.57 L 509.50 454.95 L 510.00 457.22 L 510.50 459.40 L 511.00 461.47 L 511.50 463.44 L 512.00 465.30 L 512.50 467.06 L 513.00 468.71 L 513.50 470.25 L 514.00 471.68 L 514.50 473.00 L 515.00 474.21 L 515.50 475.30 L 516.00 476.29 L 516.50 477.15 L 517.00 477.91 L 517.50 478.55 L 518.00 479.07 L 518.50 479.48 L 519.00 479.77 L 519.50 479.94 L 520.00 480.00 L 520.50 479.94 L 521.00 479.77 L 521.50 479.48 L 522.00 479.07 L 522.50 478.55 L 523.00 477.91 L 523.50 477.15 L 524.00 476.29 L 524.50 475.30 L 525.00 474.21 L 525.50 473.00 L 526.00 471.68 L 526.50 470.25 L 527.00 468.71 L 527.50 467.06 L 528.00 465.30 L 528.50 463.44 L 529.00 461.47 L 529.50 459.40 L 530.00 457.22 L 530.50 454.95 L 531.00 452.57 L 531.50 450.10 L 532.00 447.53 L 532.50 444.87 L 533.00 442.11 L 533.50 439.27 L 534.00 436.33 L 534.50 433.31 L 535.00 430.21 L 535.50 427.02 L 536.00 423.75 L 536.50 420.41 L 537.00 416.98 L 537.50 413.49 L 538.00 409.92 L 538.50 406.29 L 539.00 402.59 L 539.50 398.82 L 540.00 395.00 L 540.50 391.12 L 541.00 387.18 L 541.50 383.19 L 542.00 379.15 L 542.50 375.06 L 543.00 370.92 L 543.50 366.75 L 544.00 362.53 L 544.50 358.28 L 545.00 354.00 L 545.50 349.69 L 546.00 345.34 L 546.50 340.98 L 547.00 336.59 L 547.50 332.19 L 548.00 327.77 L 548.50 323.34 L 549.00 318.90 L 549.50 314.45 L 550.00 310.00 L 550.50 305.55 L 551.00 301.10 L 551.50 296.66 L 552.00 292.23 L 552.50 287.81 L 553.00 283.41 L 553.50 279.02 L 554.00 274.66 L 554.50 270.31 L 555.00 266.00 L 555.50 261.72 L 556.00 257.47 L 556.50 253.25 L 557.00 249.08 L 557.50 244.94 L 558.00 240.85 L 558.50 236.81 L 559.00 232.82 L 559.50 228.88 L 560.00 225.00 L 560.50 221.18 L 561.00 217.41 L 561.50 213.71 L 562.00 210.08 L 562.50 206.51 L 563.00 203.02 L 563.50 199.59 L 564.00 196.25 L 564.50 192.98 L 565.00 189.79 L 565.50 186.69 L 566.00 183.67 L 566.50 180.73 L 567.00 177.89 L 567.50 175.13 L 568.00 172.47 L 568.50 169.90 L 569.00 167.43 L 569.50 165.05 L 570.00 162.78 L 570.50 160.60 L 571.00 158.53 L 571.50 156.56 L 572.00 154.70 L 572.50 152.94 L 573.00 151.29 L 573.50 149.75 L 574.00 148.32 L 574.50 147.00 L 575.00 145.79 L 575.50 144.70 L 576.00 143.71 L 576.50 142.85 L 577.00 142.09 L 577.50 141.45 L 578.00 140.93 L 578.50 140.52 L 579.00 140.23 L 579.50 140.06 L 580.00 140.00 L 580.50 140.06 L 581.00 140.23 L 581.50 140.52 L 582.00 140.93 L 582.50 141.45 L 583.00 142.09 L 583.50 142.85 L 584.00 143.71 L 584.50 144.70 L 585.00 145.79 L 585.50 147.00 L 586.00 148.32 L 586.50 149.75 L 587.00 151.29 L 587.50 152.94 L 588.00 154.70 L 588.50 156.56 L 589.00 158.53 L 589.50 160.60 L 590.00 162.78 L 590.50 165.05 L 591.00 167.43 L 591.50 169.90 L 592.00 172.47 L 592.50 175.13 L 593.00 177.89 L 593.50 180.73 L 594.00 183.67 L 594.50 186.69 L 595.00 189.79 L 595.50 192.98 L 596.00 196.25 L 596.50 199.59 L 597.00 203.02 L 597.50 206.51 L 598.00 210.08 L 598.50 213.71 L 599.00 217.41 L 599.50 221.18 L 600.00 225.00 L 600.50 228.88 L 601.00 232.82 L 601.50 236.81 L 602.00 240.85 L 602.50 244.94 L 603.00 249.08 L 603.50 253.25 L 604.00 257.47 L 604.50 261.72 L 605.00 266.00 L 605.50 270.31 L 606.00 274.66 L 606.50 279.02 L 607.00 283.41 L 607.50 287.81 L 608.00 292.23 L 608.50 296.66 L 609.00 301.10 L 609.50 305.55 L 610.00 310.00 L 610.50 314.45 L 611.00 318.90 L 611.50 323.34 L 612.00 327.77 L 612.50 332.19 L 613.00 336.59 L 613.50 340.98 L 614.00 345.34 L 614.50 349.69 L 615.00 354.00 L 615.50 358.28 L 616.00 362.53 L 616.50 366.75 L 617.00 370.92 L 617.50 375.06 L 618.00 379.15 L 618.50 383.19 L 619.00 387.18 L 619.50 391.12 L 620.00 395.00 L 620.50 398.82 L 621.00 402.59 L 621.50 406.29 L 622.00 409.92 L 622.50 413.49 L 623.00 416.98 L 623.50 420.41 L 624.00 423.75 L 624.50 427.02 L 625.00 430.21 L 625.50 433.31 L 626.00 436.33 L 626.50 439.27 L 627.00 442.11 L 627.50 444.87 L 628.00 447.53 L 628.50 450.10 L 629.00 452.57 L 629.50 454.95 L 630.00 457.22 L 630.50 459.40 L 631.00 461.47 L 631.50 463.44 L 632.00 465.30 L 632.50 467.06 L 633.00 468.71 L 633.50 470.25 L 634.00 471.68 L 634.50 473.00 L 635.00 474.21 L 635.50 475.30 L 636.00 476.29 L 636.50 477.15 L 637.00 477.91 L 637.50 478.55 L 638.00 479.07 L 638.50 479.48 L 639.00 479.77 L 639.50 479.94 L 640.00 480.00 L 640.50 479.94 L 641.00 479.77 L 641.50 479.48 L 642.00 479.07 L 642.50 478.55 L 643.00 477.91 L 643.50 477.15 L 644.00 476.29 L 644.50 475.30 L 645.00 474.21 L 645.50 473.00 L 646.00 471.68 L 646.50 470.25 L 647.00 468.71 L 647.50 467.06 L 648.00 465.30 L 648.50 463.44 L 649.00 461.47 L 649.50 459.40 L 650.00 457.22 L 650.50 454.95 L 651.00 452.57 L 651.50 450.10 L 652.00 447.53 L 652.50 444.87 L 653.00 442.11 L 653.50 439.27 L 654.00 436.33 L 654.50 433.31 L 655.00 430.21 L 655.50 427.02 L 656.00 423.75 L 656.50 420.41 L 657.00 416.98 L 657.50 413.49 L 658.00 409.92 L 658.50 406.29 L 659.00 402.59 L 659.50 398.82 L 660.00 395.00 L 660.50 391.12 L 661.00 387.18 L 661.50 383.19 L 662.00 379.15 L 662.50 375.06 L 663.00 370.92 L 663.50 366.75 L 664.00 362.53 L 664.50 358.28 L 665.00 354.00 L 665.50 349.69 L 666.00 345.34 L 666.50 340.98 L 667.00 336.59 L 667.50 332.19 L 668.00 327.77 L 668.50 323.34 L 669.00 318.90 L 669.50 314.45 L 670.00 310.00 L 670.50 305.55 L 671.00 301.10 L 671.50 296.66 L 672.00 292.23 L 672.50 287.81 L 673.00 283.41 L 673.50 279.02 L 674.00 274.66 L 674.50 270.31 L 675.00 266.00 L 675.50 261.72 L 676.00 257.47 L 676.50 253.25 L 677.00 249.08 L 677.50 244.94 L 678.00 240.85 L 678.50 236.81 L 679.00 232.82 L 679.50 228.88 L 680.00 225.00 L 680.50 221.18 L 681.00 217.41 L 681.50 213.71 L 682.00 210.08 L 682.50 206.51 L 683.00 203.02 L 683.50 199.59 L 684.00 196.25 L 684.50 192.98 L 685.00 189.79 L 685.50 186.69 L 686.00 183.67 L 686.50 180.73 L 687.00 177.89 L 687.50 175.13 L 688.00 172.47 L 688.50 169.90 L 689.00 167.43 L 689.50 165.05 L 690.00 162.78 L 690.50 160.60 L 691.00 158.53 L 691.50 156.56 L 692.00 154.70 L 692.50 152.94 L 693.00 151.29 L 693.50 149.75 L 694.00 148.32 L 694.50 147.00 L 695.00 145.79 L 695.50 144.70 L 696.00 143.71 L 696.50 142.85 L 697.00 142.09 L 697.50 141.45 L 698.00 140.93 L 698.50 140.52 L 699.00 140.23 L 699.50 140.06 L 700.00 140.00 L 700.50 140.06 L 701.00 140.23 L 701.50 140.52 L 702.00 140.93 L 702.50 141.45 L 703.00 142.09 L 703.50 142.85 L 704.00 143.71 L 704.50 144.70 L 705.00 145.79 L 705.50 147.00 L 706.00 148.32 L 706.50 149.75 L 707.00 151.29 L 707.50 152.94 L 708.00 154.70 L 708.50 156.56 L 709.00 158.53 L 709.50 160.60 L 710.00 162.78 L 710.50 165.05 L 711.00 167.43 L 711.50 169.90 L 712.00 172.47 L 712.50 175.13 L 713.00 177.89 L 713.50 180.73 L 714.00 183.67 L 714.50 186.69 L 715.00 189.79 L 715.50 192.98 L 716.00 196.25 L 716.50 199.59 L 717.00 203.02 L 717.50 206.51 L 718.00 210.08 L 718.50 213.71 L 719.00 217.41 L 719.50 221.18 L 720.00 225.00 L 720.50 228.88 L 721.00 232.82 L 721.50 236.81 L 722.00 240.85 L 722.50 244.94 L 723.00 249.08 L 723.50 253.25 L 724.00 257.47 L 724.50 261.72 L 725.00 266.00 L 725.50 270.31 L 726.00 274.66 L 726.50 279.02 L 727.00 283.41 L 727.50 287.81 L 728.00 292.23 L 728.50 296.66 L 729.00 301.10 L 729.50 305.55 L 730.00 310.00 L 730.50 314.45 L 731.00 318.90 L 731.50 323.34 L 732.00 327.77 L 732.50 332.19 L 733.00 336.59 L 733.50 340.98 L 734.00 345.34 L 734.50 349.69 L 735.00 354.00 L 735.50 358.28 L 736.00 362.53 L 736.50 366.75 L 737.00 370.92 L 737.50 375.06 L 738.00 379.15 L 738.50 383.19 L 739.00 387.18 L 739.50 391.12 L 740.00 395.00 L 740.50 398.82 L 741.00 402.59 L 741.50 406.29 L 742.00 409.92 L 742.50 413.49 L 743.00 416.98 L 743.50 420.41 L 744.00 423.75 L 744.50 427.02 L 745.00 430.21 L 745.50 433.31 L 746.00 436.33 L 746.50 439.27 L 747.00 442.11 L 747.50 444.87 L 748.00 447.53 L 748.50 450.10 L 749.00 452.57 L 749.50 454.95 L 750.00 457.22 L 750.50 459.40 L 751.00 461.47 L 751.50 463.44 L 752.00 465.30 L 752.50 467.06 L 753.00 468.71 L 753.50 470.25 L 754.00 471.68 L 754.50 473.00 L 755.00 474.21 L 755.50 475.30 L 756.00 476.29 L 756.50 477.15 L 757.00 477.91 L 757.50 478.55 L 758.00 479.07 L 758.50 479.48 L 759.00 479.77 L 759.50 479.94 L 760.00 480.00 L 760.50 479.94 L 761.00 479.77 L 761.50 479.48 L 762.00 479.07 L 762.50 478.55 L 763.00 477.91 L 763.50 477.15 L 764.00 476.29 L 764.50 475.30 L 765.00 474.21 L 765.50 473.00 L 766.00 471.68 L 766.50 470.25 L 767.00 468.71 L 767.50 467.06 L 768.00 465.30 L 768.50 463.44 L 769.00 461.47 L 769.50 459.40 L 770.00 457.22 L 770.50 454.95 L 771.00 452.57 L 771.50 450.10 L 772.00 447.53 L 772.50 444.87 L 773.00 442.11 L 773.50 439.27 L 774.00 436.33 L 774.50 433.31 L 775.00 430.21 L 775.50 427.02 L 776.00 423.75 L 776.50 420.41 L 777.00 416.98 L 777.50 413.49 L 778.00 409.92 L 778.50 406.29 L 779.00 402.59 L 779.50 398.82 L 780.00 395.00 L 780.50 391.12 L 781.00 387.18 L 781.50 383.19 L 782.00 379.15 L 782.50 375.06 L 783.00 370.92 L 783.50 366.75 L 784.00 362.53 L 784.50 358.28 L 785.00 354.00 L 785.50 349.69 L 786.00 345.34 L 786.50 340.98 L 787.00 336.59 L 787.50 332.19 L 788.00 327.77 L 788.50 323.34 L 789.00 318.90 L 789.50 314.45 L 790.00 310.00 L 790.50 305.55 L 791.00 301.10 L 791.50 296.66 L 792.00 292.23 L 792.50 287.81 L 793.00 283.41 L 793.50 279.02 L 794.00 274.66 L 794.50 270.31 L 795.00 266.00 L 795.50 261.72 L 796.00 257.47 L 796.50 253.25 L 797.00 249.08 L 797.50 244.94 L 798.00 240.85 L 798.50 236.81 L 799.00 232.82 L 799.50 228.88 L 800.00 225.00 L 800.50 221.18 L 801.00 217.41 L 801.50 213.71 L 802.00 210.08 L 802.50 206.51 L 803.00 203.02 L 803.50 199.59 L 804.00 196.25 L 804.50 192.98 L 805.00 189.79 L 805.50 186.69 L 806.00 183.67 L 806.50 180.73 L 807.00 177.89 L 807.50 175.13 L 808.00 172.47 L 808.50 169.90 L 809.00 167.43 L 809.50 165.05 L 810.00 162.78 L 810.50 160.60 L 811.00 158.53 L 811.50 156.56 L 812.00 154.70 L 812.50 152.94 L 813.00 151.29 L 813.50 149.75 L 814.00 148.32 L 814.50 147.00 L 815.00 145.79 L 815.50 144.70 L 816.00 143.71 L 816.50 142.85 L 817.00 142.09 L 817.50 141.45 L 818.00 140.93 L 818.50 140.52 L 819.00 140.23 L 819.50 140.06 L 820.00 140.00 L 820.50 140.06 L 821.00 140.23 L 821.50 140.52 L 822.00 140.93 L 822.50 141.45 L 823.00 142.09 L 823.50 142.85 L 824.00 143.71 L 824.50 144.70 L 825.00 145.79 L 825.50 147.00 L 826.00 148.32 L 826.50 149.75 L 827.00 151.29 L 827.50 152.94 L 828.00 154.70 L 828.50 156.56 L 829.00 158.53 L 829.50 160.60 L 830.00 162.78 L 830.50 165.05 L 831.00 167.43 L 831.50 169.90 L 832.00 172.47 L 832.50 175.13 L 833.00 177.89 L 833.50 180.73 L 834.00 183.67 L 834.50 186.69 L 835.00 189.79 L 835.50 192.98 L 836.00 196.25 L 836.50 199.59 L 837.00 203.02 L 837.50 206.51 L 838.00 210.08 L 838.50 213.71 L 839.00 217.41 L 839.50 221.18 L 840.00 225.00 L 840.50 228.88 L 841.00 232.82 L 841.50 236.81 L 842.00 240.85 L 842.50 244.94 L 843.00 249.08 L 843.50 253.25 L 844.00 257.47 L 844.50 261.72 L 845.00 266.00 L 845.50 270.31 L 846.00 274.66 L 846.50 279.02 L 847.00 283.41 L 847.50 287.81 L 848.00 292.23 L 848.50 296.66 L 849.00 301.10 L 849.50 305.55 L 850.00 310.00 L 850.50 314.45 L 851.00 318.90 L 851.50 323.34 L 852.00 327.77 L 852.50 332.19 L 853.00 336.59 L 853.50 340.98 L 854.00 345.34 L 854.50 349.69 L 855.00 354.00 L 855.50 358.28 L 856.00 362.53 L 856.50 366.75 L 857.00 370.92 L 857.50 375.06 L 858.00 379.15 L 858.50 383.19 L 859.00 387.18 L 859.50 391.12 L 860.00 395.00 L 860.50 398.82 L 861.00 402.59 L 861.50 406.29 L 862.00 409.92 L 862.50 413.49 L 863.00 416.98 L 863.50 420.41 L 864.00 423.75 L 864.50 427.02 L 865.00 430.21 L 865.50 433.31 L 866.00 436.33 L 866.50 439.27 L 867.00 442.11 L 867.50 444.87 L 868.00 447.53 L 868.50 450.10 L 869.00 452.57 L 869.50 454.95 L 870.00 457.22 L 870.50 459.40 L 871.00 461.47 L 871.50 463.44 L 872.00 465.30 L 872.50 467.06 L 873.00 468.71 L 873.50 470.25 L 874.00 471.68 L 874.50 473.00 L 875.00 474.21 L 875.50 475.30 L 876.00 476.29 L 876.50 477.15 L 877.00 477.91 L 877.50 478.55 L 878.00 479.07 L 878.50 479.48 L 879.00 479.77 L 879.50 479.94 L 880.00 480.00 L 880.50 479.94 L 881.00 479.77 L 881.50 479.48 L 882.00 479.07 L 882.50 478.55 L 883.00 477.91 L 883.50 477.15 L 884.00 476.29 L 884.50 475.30 L 885.00 474.21 L 885.50 473.00 L 886.00 471.68 L 886.50 470.25 L 887.00 468.71 L 887.50 467.06 L 888.00 465.30 L 888.50 463.44 L 889.00 461.47 L 889.50 459.40 L 890.00 457.22 L 890.50 454.95 L 891.00 452.57 L 891.50 450.10 L 892.00 447.53 L 892.50 444.87 L 893.00 442.11 L 893.50 439.27 L 894.00 436.33 L 894.50 433.31 L 895.00 430.21 L 895.50 427.02 L 896.00 423.75 L 896.50 420.41 L 897.00 416.98 L 897.50 413.49 L 898.00 409.92 L 898.50 406.29 L 899.00 402.59 L 899.50 398.82 L 900.00 395.00 L 900.50 391.12 L 901.00 387.18 L 901.50 383.19 L 902.00 379.15 L 902.50 375.06 L 903.00 370.92 L 903.50 366.75 L 904.00 362.53 L 904.50 358.28 L 905.00 354.00 L 905.50 349.69 L 906.00 345.34 L 906.50 340.98 L 907.00 336.59 L 907.50 332.19 L 908.00 327.77 L 908.50 323.34 L 909.00 318.90 L 909.50 314.45 L 910.00 310.00 L 910.50 305.55 L 911.00 301.10 L 911.50 296.66 L 912.00 292.23 L 912.50 287.81 L 913.00 283.41 L 913.50 279.02 L 914.00 274.66 L 914.50 270.31 L 915.00 266.00 L 915.50 261.72 L 916.00 257.47 L 916.50 253.25 L 917.00 249.08 L 917.50 244.94 L 918.00 240.85 L 918.50 236.81 L 919.00 232.82 L 919.50 228.88 L 920.00 225.00 L 920.50 221.18 L 921.00 217.41 L 921.50 213.71 L 922.00 210.08 L 922.50 206.51 L 923.00 203.02 L 923.50 199.59 L 924.00 196.25 L 924.50 192.98 L 925.00 189.79 L 925.50 186.69 L 926.00 183.67 L 926.50 180.73 L 927.00 177.89 L 927.50 175.13 L 928.00 172.47 L 928.50 169.90 L 929.00 167.43 L 929.50 165.05 L 930.00 162.78 L 930.50 160.60 L 931.00 158.53 L 931.50 156.56 L 932.00 154.70 L 932.50 152.94 L 933.00 151.29 L 933.50 149.75 L 934.00 148.32 L 934.50 147.00 L 935.00 145.79 L 935.50 144.70 L 936.00 143.71 L 936.50 142.85 L 937.00 142.09 L 937.50 141.45 L 938.00 140.93 L 938.50 140.52 L 939.00 140.23 L 939.50 140.06 L 940.00 140.00 L 940.50 140.06 L 941.00 140.23 L 941.50 140.52 L 942.00 140.93 L 942.50 141.45 L 943.00 142.09 L 943.50 142.85 L 944.00 143.71 L 944.50 144.70 L 945.00 145.79 L 945.50 147.00 L 946.00 148.32 L 946.50 149.75 L 947.00 151.29 L 947.50 152.94 L 948.00 154.70 L 948.50 156.56 L 949.00 158.53 L 949.50 160.60 L 950.00 162.78 L 950.50 165.05 L 951.00 167.43 L 951.50 169.90 L 952.00 172.47 L 952.50 175.13 L 953.00 177.89 L 953.50 180.73 L 954.00 183.67 L 954.50 186.69 L 955.00 189.79 L 955.50 192.98 L 956.00 196.25 L 956.50 199.59 L 957.00 203.02 L 957.50 206.51 L 958.00 210.08 L 958.50 213.71 L 959.00 217.41 L 959.50 221.18 L 960.00 225.00 L 960.50 228.88 L 961.00 232.82 L 961.50 236.81 L 962.00 240.85 L 962.50 244.94 L 963.00 249.08 L 963.50 253.25 L 964.00 257.47 L 964.50 261.72 L 965.00 266.00 L 965.50 270.31 L 966.00 274.66 L 966.50 279.02 L 967.00 283.41 L 967.50 287.81 L 968.00 292.23 L 968.50 296.66 L 969.00 301.10 L 969.50 305.55 L 970.00 310.00 L 970.50 314.45 L 971.00 318.90 L 971.50 323.34 L 972.00 327.77 L 972.50 332.19 L 973.00 336.59 L 973.50 340.98 L 974.00 345.34 L 974.50 349.69 L 975.00 354.00 L 975.50 358.28 L 976.00 362.53 L 976.50 366.75 L 977.00 370.92 L 977.50 375.06 L 978.00 379.15 L 978.50 383.19 L 979.00 387.18 L 979.50 391.12 L 980.00 395.00 L 980.50 398.82 L 981.00 402.59 L 981.50 406.29 L 982.00 409.92 L 982.50 413.49 L 983.00 416.98 L 983.50 420.41 L 984.00 423.75 L 984.50 427.02 L 985.00 430.21 L 985.50 433.31 L 986.00 436.33 L 986.50 439.27 L 987.00 442.11 L 987.50 444.87 L 988.00 447.53 L 988.50 450.10 L 989.00 452.57 L 989.50 454.95 L 990.00 457.22 L 990.50 459.40 L 991.00 461.47 L 991.50 463.44 L 992.00 465.30 L 992.50 467.06 L 993.00 468.71 L 993.50 470.25 L 994.00 471.68 L 994.50 473.00 L 995.00 474.21 L 995.50 475.30 L 996.00 476.29 L 996.50 477.15 L 997.00 477.91 L 997.50 478.55 L 998.00 479.07 L 998.50 479.48 L 999.00 479.77 L 999.50 479.94 L 1000.00 480.00" fill="none" stroke="#b85d13" stroke-width="2.5" stroke-linejoin="round"/><path d="M 100.00 140.00 L 100.50 140.02 L 101.00 140.08 L 101.50 140.19 L 102.00 140.34 L 102.50 140.52 L 103.00 140.75 L 103.50 141.03 L 104.00 141.34 L 104.50 141.70 L 105.00 142.09 L 105.50 142.53 L 106.00 143.01 L 106.50 143.53 L 107.00 144.09 L 107.50 144.70 L 108.00 145.34 L 108.50 146.03 L 109.00 146.75 L 109.50 147.52 L 110.00 148.32 L 110.50 149.17 L 111.00 150.05 L 111.50 150.97 L 112.00 151.94 L 112.50 152.94 L 113.00 153.98 L 113.50 155.06 L 114.00 156.18 L 114.50 157.34 L 115.00 158.53 L 115.50 159.76 L 116.00 161.03 L 116.50 162.33 L 117.00 163.67 L 117.50 165.05 L 118.00 166.46 L 118.50 167.91 L 119.00 169.40 L 119.50 170.91 L 120.00 172.47 L 120.50 174.05 L 121.00 175.67 L 121.50 177.33 L 122.00 179.01 L 122.50 180.73 L 123.00 182.48 L 123.50 184.26 L 124.00 186.08 L 124.50 187.92 L 125.00 189.79 L 125.50 191.69 L 126.00 193.63 L 126.50 195.59 L 127.00 197.58 L 127.50 199.59 L 128.00 201.64 L 128.50 203.71 L 129.00 205.81 L 129.50 207.93 L 130.00 210.08 L 130.50 212.25 L 131.00 214.45 L 131.50 216.67 L 132.00 218.91 L 132.50 221.18 L 133.00 223.46 L 133.50 225.77 L 134.00 228.10 L 134.50 230.45 L 135.00 232.82 L 135.50 235.21 L 136.00 237.62 L 136.50 240.04 L 137.00 242.48 L 137.50 244.94 L 138.00 247.42 L 138.50 249.91 L 139.00 252.41 L 139.50 254.93 L 140.00 257.47 L 140.50 260.01 L 141.00 262.57 L 141.50 265.14 L 142.00 267.72 L 142.50 270.31 L 143.00 272.92 L 143.50 275.53 L 144.00 278.15 L 144.50 280.77 L 145.00 283.41 L 145.50 286.05 L 146.00 288.69 L 146.50 291.35 L 147.00 294.00 L 147.50 296.66 L 148.00 299.33 L 148.50 301.99 L 149.00 304.66 L 149.50 307.33 L 150.00 310.00 L 150.50 312.67 L 151.00 315.34 L 151.50 318.01 L 152.00 320.67 L 152.50 323.34 L 153.00 326.00 L 153.50 328.65 L 154.00 331.31 L 154.50 333.95 L 155.00 336.59 L 155.50 339.23 L 156.00 341.85 L 156.50 344.47 L 157.00 347.08 L 157.50 349.69 L 158.00 352.28 L 158.50 354.86 L 159.00 357.43 L 159.50 359.99 L 160.00 362.53 L 160.50 365.07 L 161.00 367.59 L 161.50 370.09 L 162.00 372.58 L 162.50 375.06 L 163.00 377.52 L 163.50 379.96 L 164.00 382.38 L 164.50 384.79 L 165.00 387.18 L 165.50 389.55 L 166.00 391.90 L 166.50 394.23 L 167.00 396.54 L 167.50 398.82 L 168.00 401.09 L 168.50 403.33 L 169.00 405.55 L 169.50 407.75 L 170.00 409.92 L 170.50 412.07 L 171.00 414.19 L 171.50 416.29 L 172.00 418.36 L 172.50 420.41 L 173.00 422.42 L 173.50 424.41 L 174.00 426.37 L 174.50 428.31 L 175.00 430.21 L 175.50 432.08 L 176.00 433.92 L 176.50 435.74 L 177.00 437.52 L 177.50 439.27 L 178.00 440.99 L 178.50 442.67 L 179.00 444.33 L 179.50 445.95 L 180.00 447.53 L 180.50 449.09 L 181.00 450.60 L 181.50 452.09 L 182.00 453.54 L 182.50 454.95 L 183.00 456.33 L 183.50 457.67 L 184.00 458.97 L 184.50 460.24 L 185.00 461.47 L 185.50 462.66 L 186.00 463.82 L 186.50 464.94 L 187.00 466.02 L 187.50 467.06 L 188.00 468.06 L 188.50 469.03 L 189.00 469.95 L 189.50 470.83 L 190.00 471.68 L 190.50 472.48 L 191.00 473.25 L 191.50 473.97 L 192.00 474.66 L 192.50 475.30 L 193.00 475.91 L 193.50 476.47 L 194.00 476.99 L 194.50 477.47 L 195.00 477.91 L 195.50 478.30 L 196.00 478.66 L 196.50 478.97 L 197.00 479.25 L 197.50 479.48 L 198.00 479.66 L 198.50 479.81 L 199.00 479.92 L 199.50 479.98 L 200.00 480.00 L 200.50 479.98 L 201.00 479.92 L 201.50 479.81 L 202.00 479.66 L 202.50 479.48 L 203.00 479.25 L 203.50 478.97 L 204.00 478.66 L 204.50 478.30 L 205.00 477.91 L 205.50 477.47 L 206.00 476.99 L 206.50 476.47 L 207.00 475.91 L 207.50 475.30 L 208.00 474.66 L 208.50 473.97 L 209.00 473.25 L 209.50 472.48 L 210.00 471.68 L 210.50 470.83 L 211.00 469.95 L 211.50 469.03 L 212.00 468.06 L 212.50 467.06 L 213.00 466.02 L 213.50 464.94 L 214.00 463.82 L 214.50 462.66 L 215.00 461.47 L 215.50 460.24 L 216.00 458.97 L 216.50 457.67 L 217.00 456.33 L 217.50 454.95 L 218.00 453.54 L 218.50 452.09 L 219.00 450.60 L 219.50 449.09 L 220.00 447.53 L 220.50 445.95 L 221.00 444.33 L 221.50 442.67 L 222.00 440.99 L 222.50 439.27 L 223.00 437.52 L 223.50 435.74 L 224.00 433.92 L 224.50 432.08 L 225.00 430.21 L 225.50 428.31 L 226.00 426.37 L 226.50 424.41 L 227.00 422.42 L 227.50 420.41 L 228.00 418.36 L 228.50 416.29 L 229.00 414.19 L 229.50 412.07 L 230.00 409.92 L 230.50 407.75 L 231.00 405.55 L 231.50 403.33 L 232.00 401.09 L 232.50 398.82 L 233.00 396.54 L 233.50 394.23 L 234.00 391.90 L 234.50 389.55 L 235.00 387.18 L 235.50 384.79 L 236.00 382.38 L 236.50 379.96 L 237.00 377.52 L 237.50 375.06 L 238.00 372.58 L 238.50 370.09 L 239.00 367.59 L 239.50 365.07 L 240.00 362.53 L 240.50 359.99 L 241.00 357.43 L 241.50 354.86 L 242.00 352.28 L 242.50 349.69 L 243.00 347.08 L 243.50 344.47 L 244.00 341.85 L 244.50 339.23 L 245.00 336.59 L 245.50 333.95 L 246.00 331.31 L 246.50 328.65 L 247.00 326.00 L 247.50 323.34 L 248.00 320.67 L 248.50 318.01 L 249.00 315.34 L 249.50 312.67 L 250.00 310.00 L 250.50 307.33 L 251.00 304.66 L 251.50 301.99 L 252.00 299.33 L 252.50 296.66 L 253.00 294.00 L 253.50 291.35 L 254.00 288.69 L 254.50 286.05 L 255.00 283.41 L 255.50 280.77 L 256.00 278.15 L 256.50 275.53 L 257.00 272.92 L 257.50 270.31 L 258.00 267.72 L 258.50 265.14 L 259.00 262.57 L 259.50 260.01 L 260.00 257.47 L 260.50 254.93 L 261.00 252.41 L 261.50 249.91 L 262.00 247.42 L 262.50 244.94 L 263.00 242.48 L 263.50 240.04 L 264.00 237.62 L 264.50 235.21 L 265.00 232.82 L 265.50 230.45 L 266.00 228.10 L 266.50 225.77 L 267.00 223.46 L 267.50 221.18 L 268.00 218.91 L 268.50 216.67 L 269.00 214.45 L 269.50 212.25 L 270.00 210.08 L 270.50 207.93 L 271.00 205.81 L 271.50 203.71 L 272.00 201.64 L 272.50 199.59 L 273.00 197.58 L 273.50 195.59 L 274.00 193.63 L 274.50 191.69 L 275.00 189.79 L 275.50 187.92 L 276.00 186.08 L 276.50 184.26 L 277.00 182.48 L 277.50 180.73 L 278.00 179.01 L 278.50 177.33 L 279.00 175.67 L 279.50 174.05 L 280.00 172.47 L 280.50 170.91 L 281.00 169.40 L 281.50 167.91 L 282.00 166.46 L 282.50 165.05 L 283.00 163.67 L 283.50 162.33 L 284.00 161.03 L 284.50 159.76 L 285.00 158.53 L 285.50 157.34 L 286.00 156.18 L 286.50 155.06 L 287.00 153.98 L 287.50 152.94 L 288.00 151.94 L 288.50 150.97 L 289.00 150.05 L 289.50 149.17 L 290.00 148.32 L 290.50 147.52 L 291.00 146.75 L 291.50 146.03 L 292.00 145.34 L 292.50 144.70 L 293.00 144.09 L 293.50 143.53 L 294.00 143.01 L 294.50 142.53 L 295.00 142.09 L 295.50 141.70 L 296.00 141.34 L 296.50 141.03 L 297.00 140.75 L 297.50 140.52 L 298.00 140.34 L 298.50 140.19 L 299.00 140.08 L 299.50 140.02 L 300.00 140.00 L 300.50 140.02 L 301.00 140.08 L 301.50 140.19 L 302.00 140.34 L 302.50 140.52 L 303.00 140.75 L 303.50 141.03 L 304.00 141.34 L 304.50 141.70 L 305.00 142.09 L 305.50 142.53 L 306.00 143.01 L 306.50 143.53 L 307.00 144.09 L 307.50 144.70 L 308.00 145.34 L 308.50 146.03 L 309.00 146.75 L 309.50 147.52 L 310.00 148.32 L 310.50 149.17 L 311.00 150.05 L 311.50 150.97 L 312.00 151.94 L 312.50 152.94 L 313.00 153.98 L 313.50 155.06 L 314.00 156.18 L 314.50 157.34 L 315.00 158.53 L 315.50 159.76 L 316.00 161.03 L 316.50 162.33 L 317.00 163.67 L 317.50 165.05 L 318.00 166.46 L 318.50 167.91 L 319.00 169.40 L 319.50 170.91 L 320.00 172.47 L 320.50 174.05 L 321.00 175.67 L 321.50 177.33 L 322.00 179.01 L 322.50 180.73 L 323.00 182.48 L 323.50 184.26 L 324.00 186.08 L 324.50 187.92 L 325.00 189.79 L 325.50 191.69 L 326.00 193.63 L 326.50 195.59 L 327.00 197.58 L 327.50 199.59 L 328.00 201.64 L 328.50 203.71 L 329.00 205.81 L 329.50 207.93 L 330.00 210.08 L 330.50 212.25 L 331.00 214.45 L 331.50 216.67 L 332.00 218.91 L 332.50 221.18 L 333.00 223.46 L 333.50 225.77 L 334.00 228.10 L 334.50 230.45 L 335.00 232.82 L 335.50 235.21 L 336.00 237.62 L 336.50 240.04 L 337.00 242.48 L 337.50 244.94 L 338.00 247.42 L 338.50 249.91 L 339.00 252.41 L 339.50 254.93 L 340.00 257.47 L 340.50 260.01 L 341.00 262.57 L 341.50 265.14 L 342.00 267.72 L 342.50 270.31 L 343.00 272.92 L 343.50 275.53 L 344.00 278.15 L 344.50 280.77 L 345.00 283.41 L 345.50 286.05 L 346.00 288.69 L 346.50 291.35 L 347.00 294.00 L 347.50 296.66 L 348.00 299.33 L 348.50 301.99 L 349.00 304.66 L 349.50 307.33 L 350.00 310.00 L 350.50 312.67 L 351.00 315.34 L 351.50 318.01 L 352.00 320.67 L 352.50 323.34 L 353.00 326.00 L 353.50 328.65 L 354.00 331.31 L 354.50 333.95 L 355.00 336.59 L 355.50 339.23 L 356.00 341.85 L 356.50 344.47 L 357.00 347.08 L 357.50 349.69 L 358.00 352.28 L 358.50 354.86 L 359.00 357.43 L 359.50 359.99 L 360.00 362.53 L 360.50 365.07 L 361.00 367.59 L 361.50 370.09 L 362.00 372.58 L 362.50 375.06 L 363.00 377.52 L 363.50 379.96 L 364.00 382.38 L 364.50 384.79 L 365.00 387.18 L 365.50 389.55 L 366.00 391.90 L 366.50 394.23 L 367.00 396.54 L 367.50 398.82 L 368.00 401.09 L 368.50 403.33 L 369.00 405.55 L 369.50 407.75 L 370.00 409.92 L 370.50 412.07 L 371.00 414.19 L 371.50 416.29 L 372.00 418.36 L 372.50 420.41 L 373.00 422.42 L 373.50 424.41 L 374.00 426.37 L 374.50 428.31 L 375.00 430.21 L 375.50 432.08 L 376.00 433.92 L 376.50 435.74 L 377.00 437.52 L 377.50 439.27 L 378.00 440.99 L 378.50 442.67 L 379.00 444.33 L 379.50 445.95 L 380.00 447.53 L 380.50 449.09 L 381.00 450.60 L 381.50 452.09 L 382.00 453.54 L 382.50 454.95 L 383.00 456.33 L 383.50 457.67 L 384.00 458.97 L 384.50 460.24 L 385.00 461.47 L 385.50 462.66 L 386.00 463.82 L 386.50 464.94 L 387.00 466.02 L 387.50 467.06 L 388.00 468.06 L 388.50 469.03 L 389.00 469.95 L 389.50 470.83 L 390.00 471.68 L 390.50 472.48 L 391.00 473.25 L 391.50 473.97 L 392.00 474.66 L 392.50 475.30 L 393.00 475.91 L 393.50 476.47 L 394.00 476.99 L 394.50 477.47 L 395.00 477.91 L 395.50 478.30 L 396.00 478.66 L 396.50 478.97 L 397.00 479.25 L 397.50 479.48 L 398.00 479.66 L 398.50 479.81 L 399.00 479.92 L 399.50 479.98 L 400.00 480.00 L 400.50 479.98 L 401.00 479.92 L 401.50 479.81 L 402.00 479.66 L 402.50 479.48 L 403.00 479.25 L 403.50 478.97 L 404.00 478.66 L 404.50 478.30 L 405.00 477.91 L 405.50 477.47 L 406.00 476.99 L 406.50 476.47 L 407.00 475.91 L 407.50 475.30 L 408.00 474.66 L 408.50 473.97 L 409.00 473.25 L 409.50 472.48 L 410.00 471.68 L 410.50 470.83 L 411.00 469.95 L 411.50 469.03 L 412.00 468.06 L 412.50 467.06 L 413.00 466.02 L 413.50 464.94 L 414.00 463.82 L 414.50 462.66 L 415.00 461.47 L 415.50 460.24 L 416.00 458.97 L 416.50 457.67 L 417.00 456.33 L 417.50 454.95 L 418.00 453.54 L 418.50 452.09 L 419.00 450.60 L 419.50 449.09 L 420.00 447.53 L 420.50 445.95 L 421.00 444.33 L 421.50 442.67 L 422.00 440.99 L 422.50 439.27 L 423.00 437.52 L 423.50 435.74 L 424.00 433.92 L 424.50 432.08 L 425.00 430.21 L 425.50 428.31 L 426.00 426.37 L 426.50 424.41 L 427.00 422.42 L 427.50 420.41 L 428.00 418.36 L 428.50 416.29 L 429.00 414.19 L 429.50 412.07 L 430.00 409.92 L 430.50 407.75 L 431.00 405.55 L 431.50 403.33 L 432.00 401.09 L 432.50 398.82 L 433.00 396.54 L 433.50 394.23 L 434.00 391.90 L 434.50 389.55 L 435.00 387.18 L 435.50 384.79 L 436.00 382.38 L 436.50 379.96 L 437.00 377.52 L 437.50 375.06 L 438.00 372.58 L 438.50 370.09 L 439.00 367.59 L 439.50 365.07 L 440.00 362.53 L 440.50 359.99 L 441.00 357.43 L 441.50 354.86 L 442.00 352.28 L 442.50 349.69 L 443.00 347.08 L 443.50 344.47 L 444.00 341.85 L 444.50 339.23 L 445.00 336.59 L 445.50 333.95 L 446.00 331.31 L 446.50 328.65 L 447.00 326.00 L 447.50 323.34 L 448.00 320.67 L 448.50 318.01 L 449.00 315.34 L 449.50 312.67 L 450.00 310.00 L 450.50 307.33 L 451.00 304.66 L 451.50 301.99 L 452.00 299.33 L 452.50 296.66 L 453.00 294.00 L 453.50 291.35 L 454.00 288.69 L 454.50 286.05 L 455.00 283.41 L 455.50 280.77 L 456.00 278.15 L 456.50 275.53 L 457.00 272.92 L 457.50 270.31 L 458.00 267.72 L 458.50 265.14 L 459.00 262.57 L 459.50 260.01 L 460.00 257.47 L 460.50 254.93 L 461.00 252.41 L 461.50 249.91 L 462.00 247.42 L 462.50 244.94 L 463.00 242.48 L 463.50 240.04 L 464.00 237.62 L 464.50 235.21 L 465.00 232.82 L 465.50 230.45 L 466.00 228.10 L 466.50 225.77 L 467.00 223.46 L 467.50 221.18 L 468.00 218.91 L 468.50 216.67 L 469.00 214.45 L 469.50 212.25 L 470.00 210.08 L 470.50 207.93 L 471.00 205.81 L 471.50 203.71 L 472.00 201.64 L 472.50 199.59 L 473.00 197.58 L 473.50 195.59 L 474.00 193.63 L 474.50 191.69 L 475.00 189.79 L 475.50 187.92 L 476.00 186.08 L 476.50 184.26 L 477.00 182.48 L 477.50 180.73 L 478.00 179.01 L 478.50 177.33 L 479.00 175.67 L 479.50 174.05 L 480.00 172.47 L 480.50 170.91 L 481.00 169.40 L 481.50 167.91 L 482.00 166.46 L 482.50 165.05 L 483.00 163.67 L 483.50 162.33 L 484.00 161.03 L 484.50 159.76 L 485.00 158.53 L 485.50 157.34 L 486.00 156.18 L 486.50 155.06 L 487.00 153.98 L 487.50 152.94 L 488.00 151.94 L 488.50 150.97 L 489.00 150.05 L 489.50 149.17 L 490.00 148.32 L 490.50 147.52 L 491.00 146.75 L 491.50 146.03 L 492.00 145.34 L 492.50 144.70 L 493.00 144.09 L 493.50 143.53 L 494.00 143.01 L 494.50 142.53 L 495.00 142.09 L 495.50 141.70 L 496.00 141.34 L 496.50 141.03 L 497.00 140.75 L 497.50 140.52 L 498.00 140.34 L 498.50 140.19 L 499.00 140.08 L 499.50 140.02 L 500.00 140.00 L 500.50 140.02 L 501.00 140.08 L 501.50 140.19 L 502.00 140.34 L 502.50 140.52 L 503.00 140.75 L 503.50 141.03 L 504.00 141.34 L 504.50 141.70 L 505.00 142.09 L 505.50 142.53 L 506.00 143.01 L 506.50 143.53 L 507.00 144.09 L 507.50 144.70 L 508.00 145.34 L 508.50 146.03 L 509.00 146.75 L 509.50 147.52 L 510.00 148.32 L 510.50 149.17 L 511.00 150.05 L 511.50 150.97 L 512.00 151.94 L 512.50 152.94 L 513.00 153.98 L 513.50 155.06 L 514.00 156.18 L 514.50 157.34 L 515.00 158.53 L 515.50 159.76 L 516.00 161.03 L 516.50 162.33 L 517.00 163.67 L 517.50 165.05 L 518.00 166.46 L 518.50 167.91 L 519.00 169.40 L 519.50 170.91 L 520.00 172.47 L 520.50 174.05 L 521.00 175.67 L 521.50 177.33 L 522.00 179.01 L 522.50 180.73 L 523.00 182.48 L 523.50 184.26 L 524.00 186.08 L 524.50 187.92 L 525.00 189.79 L 525.50 191.69 L 526.00 193.63 L 526.50 195.59 L 527.00 197.58 L 527.50 199.59 L 528.00 201.64 L 528.50 203.71 L 529.00 205.81 L 529.50 207.93 L 530.00 210.08 L 530.50 212.25 L 531.00 214.45 L 531.50 216.67 L 532.00 218.91 L 532.50 221.18 L 533.00 223.46 L 533.50 225.77 L 534.00 228.10 L 534.50 230.45 L 535.00 232.82 L 535.50 235.21 L 536.00 237.62 L 536.50 240.04 L 537.00 242.48 L 537.50 244.94 L 538.00 247.42 L 538.50 249.91 L 539.00 252.41 L 539.50 254.93 L 540.00 257.47 L 540.50 260.01 L 541.00 262.57 L 541.50 265.14 L 542.00 267.72 L 542.50 270.31 L 543.00 272.92 L 543.50 275.53 L 544.00 278.15 L 544.50 280.77 L 545.00 283.41 L 545.50 286.05 L 546.00 288.69 L 546.50 291.35 L 547.00 294.00 L 547.50 296.66 L 548.00 299.33 L 548.50 301.99 L 549.00 304.66 L 549.50 307.33 L 550.00 310.00 L 550.50 312.67 L 551.00 315.34 L 551.50 318.01 L 552.00 320.67 L 552.50 323.34 L 553.00 326.00 L 553.50 328.65 L 554.00 331.31 L 554.50 333.95 L 555.00 336.59 L 555.50 339.23 L 556.00 341.85 L 556.50 344.47 L 557.00 347.08 L 557.50 349.69 L 558.00 352.28 L 558.50 354.86 L 559.00 357.43 L 559.50 359.99 L 560.00 362.53 L 560.50 365.07 L 561.00 367.59 L 561.50 370.09 L 562.00 372.58 L 562.50 375.06 L 563.00 377.52 L 563.50 379.96 L 564.00 382.38 L 564.50 384.79 L 565.00 387.18 L 565.50 389.55 L 566.00 391.90 L 566.50 394.23 L 567.00 396.54 L 567.50 398.82 L 568.00 401.09 L 568.50 403.33 L 569.00 405.55 L 569.50 407.75 L 570.00 409.92 L 570.50 412.07 L 571.00 414.19 L 571.50 416.29 L 572.00 418.36 L 572.50 420.41 L 573.00 422.42 L 573.50 424.41 L 574.00 426.37 L 574.50 428.31 L 575.00 430.21 L 575.50 432.08 L 576.00 433.92 L 576.50 435.74 L 577.00 437.52 L 577.50 439.27 L 578.00 440.99 L 578.50 442.67 L 579.00 444.33 L 579.50 445.95 L 580.00 447.53 L 580.50 449.09 L 581.00 450.60 L 581.50 452.09 L 582.00 453.54 L 582.50 454.95 L 583.00 456.33 L 583.50 457.67 L 584.00 458.97 L 584.50 460.24 L 585.00 461.47 L 585.50 462.66 L 586.00 463.82 L 586.50 464.94 L 587.00 466.02 L 587.50 467.06 L 588.00 468.06 L 588.50 469.03 L 589.00 469.95 L 589.50 470.83 L 590.00 471.68 L 590.50 472.48 L 591.00 473.25 L 591.50 473.97 L 592.00 474.66 L 592.50 475.30 L 593.00 475.91 L 593.50 476.47 L 594.00 476.99 L 594.50 477.47 L 595.00 477.91 L 595.50 478.30 L 596.00 478.66 L 596.50 478.97 L 597.00 479.25 L 597.50 479.48 L 598.00 479.66 L 598.50 479.81 L 599.00 479.92 L 599.50 479.98 L 600.00 480.00 L 600.50 479.98 L 601.00 479.92 L 601.50 479.81 L 602.00 479.66 L 602.50 479.48 L 603.00 479.25 L 603.50 478.97 L 604.00 478.66 L 604.50 478.30 L 605.00 477.91 L 605.50 477.47 L 606.00 476.99 L 606.50 476.47 L 607.00 475.91 L 607.50 475.30 L 608.00 474.66 L 608.50 473.97 L 609.00 473.25 L 609.50 472.48 L 610.00 471.68 L 610.50 470.83 L 611.00 469.95 L 611.50 469.03 L 612.00 468.06 L 612.50 467.06 L 613.00 466.02 L 613.50 464.94 L 614.00 463.82 L 614.50 462.66 L 615.00 461.47 L 615.50 460.24 L 616.00 458.97 L 616.50 457.67 L 617.00 456.33 L 617.50 454.95 L 618.00 453.54 L 618.50 452.09 L 619.00 450.60 L 619.50 449.09 L 620.00 447.53 L 620.50 445.95 L 621.00 444.33 L 621.50 442.67 L 622.00 440.99 L 622.50 439.27 L 623.00 437.52 L 623.50 435.74 L 624.00 433.92 L 624.50 432.08 L 625.00 430.21 L 625.50 428.31 L 626.00 426.37 L 626.50 424.41 L 627.00 422.42 L 627.50 420.41 L 628.00 418.36 L 628.50 416.29 L 629.00 414.19 L 629.50 412.07 L 630.00 409.92 L 630.50 407.75 L 631.00 405.55 L 631.50 403.33 L 632.00 401.09 L 632.50 398.82 L 633.00 396.54 L 633.50 394.23 L 634.00 391.90 L 634.50 389.55 L 635.00 387.18 L 635.50 384.79 L 636.00 382.38 L 636.50 379.96 L 637.00 377.52 L 637.50 375.06 L 638.00 372.58 L 638.50 370.09 L 639.00 367.59 L 639.50 365.07 L 640.00 362.53 L 640.50 359.99 L 641.00 357.43 L 641.50 354.86 L 642.00 352.28 L 642.50 349.69 L 643.00 347.08 L 643.50 344.47 L 644.00 341.85 L 644.50 339.23 L 645.00 336.59 L 645.50 333.95 L 646.00 331.31 L 646.50 328.65 L 647.00 326.00 L 647.50 323.34 L 648.00 320.67 L 648.50 318.01 L 649.00 315.34 L 649.50 312.67 L 650.00 310.00 L 650.50 307.33 L 651.00 304.66 L 651.50 301.99 L 652.00 299.33 L 652.50 296.66 L 653.00 294.00 L 653.50 291.35 L 654.00 288.69 L 654.50 286.05 L 655.00 283.41 L 655.50 280.77 L 656.00 278.15 L 656.50 275.53 L 657.00 272.92 L 657.50 270.31 L 658.00 267.72 L 658.50 265.14 L 659.00 262.57 L 659.50 260.01 L 660.00 257.47 L 660.50 254.93 L 661.00 252.41 L 661.50 249.91 L 662.00 247.42 L 662.50 244.94 L 663.00 242.48 L 663.50 240.04 L 664.00 237.62 L 664.50 235.21 L 665.00 232.82 L 665.50 230.45 L 666.00 228.10 L 666.50 225.77 L 667.00 223.46 L 667.50 221.18 L 668.00 218.91 L 668.50 216.67 L 669.00 214.45 L 669.50 212.25 L 670.00 210.08 L 670.50 207.93 L 671.00 205.81 L 671.50 203.71 L 672.00 201.64 L 672.50 199.59 L 673.00 197.58 L 673.50 195.59 L 674.00 193.63 L 674.50 191.69 L 675.00 189.79 L 675.50 187.92 L 676.00 186.08 L 676.50 184.26 L 677.00 182.48 L 677.50 180.73 L 678.00 179.01 L 678.50 177.33 L 679.00 175.67 L 679.50 174.05 L 680.00 172.47 L 680.50 170.91 L 681.00 169.40 L 681.50 167.91 L 682.00 166.46 L 682.50 165.05 L 683.00 163.67 L 683.50 162.33 L 684.00 161.03 L 684.50 159.76 L 685.00 158.53 L 685.50 157.34 L 686.00 156.18 L 686.50 155.06 L 687.00 153.98 L 687.50 152.94 L 688.00 151.94 L 688.50 150.97 L 689.00 150.05 L 689.50 149.17 L 690.00 148.32 L 690.50 147.52 L 691.00 146.75 L 691.50 146.03 L 692.00 145.34 L 692.50 144.70 L 693.00 144.09 L 693.50 143.53 L 694.00 143.01 L 694.50 142.53 L 695.00 142.09 L 695.50 141.70 L 696.00 141.34 L 696.50 141.03 L 697.00 140.75 L 697.50 140.52 L 698.00 140.34 L 698.50 140.19 L 699.00 140.08 L 699.50 140.02 L 700.00 140.00 L 700.50 140.02 L 701.00 140.08 L 701.50 140.19 L 702.00 140.34 L 702.50 140.52 L 703.00 140.75 L 703.50 141.03 L 704.00 141.34 L 704.50 141.70 L 705.00 142.09 L 705.50 142.53 L 706.00 143.01 L 706.50 143.53 L 707.00 144.09 L 707.50 144.70 L 708.00 145.34 L 708.50 146.03 L 709.00 146.75 L 709.50 147.52 L 710.00 148.32 L 710.50 149.17 L 711.00 150.05 L 711.50 150.97 L 712.00 151.94 L 712.50 152.94 L 713.00 153.98 L 713.50 155.06 L 714.00 156.18 L 714.50 157.34 L 715.00 158.53 L 715.50 159.76 L 716.00 161.03 L 716.50 162.33 L 717.00 163.67 L 717.50 165.05 L 718.00 166.46 L 718.50 167.91 L 719.00 169.40 L 719.50 170.91 L 720.00 172.47 L 720.50 174.05 L 721.00 175.67 L 721.50 177.33 L 722.00 179.01 L 722.50 180.73 L 723.00 182.48 L 723.50 184.26 L 724.00 186.08 L 724.50 187.92 L 725.00 189.79 L 725.50 191.69 L 726.00 193.63 L 726.50 195.59 L 727.00 197.58 L 727.50 199.59 L 728.00 201.64 L 728.50 203.71 L 729.00 205.81 L 729.50 207.93 L 730.00 210.08 L 730.50 212.25 L 731.00 214.45 L 731.50 216.67 L 732.00 218.91 L 732.50 221.18 L 733.00 223.46 L 733.50 225.77 L 734.00 228.10 L 734.50 230.45 L 735.00 232.82 L 735.50 235.21 L 736.00 237.62 L 736.50 240.04 L 737.00 242.48 L 737.50 244.94 L 738.00 247.42 L 738.50 249.91 L 739.00 252.41 L 739.50 254.93 L 740.00 257.47 L 740.50 260.01 L 741.00 262.57 L 741.50 265.14 L 742.00 267.72 L 742.50 270.31 L 743.00 272.92 L 743.50 275.53 L 744.00 278.15 L 744.50 280.77 L 745.00 283.41 L 745.50 286.05 L 746.00 288.69 L 746.50 291.35 L 747.00 294.00 L 747.50 296.66 L 748.00 299.33 L 748.50 301.99 L 749.00 304.66 L 749.50 307.33 L 750.00 310.00 L 750.50 312.67 L 751.00 315.34 L 751.50 318.01 L 752.00 320.67 L 752.50 323.34 L 753.00 326.00 L 753.50 328.65 L 754.00 331.31 L 754.50 333.95 L 755.00 336.59 L 755.50 339.23 L 756.00 341.85 L 756.50 344.47 L 757.00 347.08 L 757.50 349.69 L 758.00 352.28 L 758.50 354.86 L 759.00 357.43 L 759.50 359.99 L 760.00 362.53 L 760.50 365.07 L 761.00 367.59 L 761.50 370.09 L 762.00 372.58 L 762.50 375.06 L 763.00 377.52 L 763.50 379.96 L 764.00 382.38 L 764.50 384.79 L 765.00 387.18 L 765.50 389.55 L 766.00 391.90 L 766.50 394.23 L 767.00 396.54 L 767.50 398.82 L 768.00 401.09 L 768.50 403.33 L 769.00 405.55 L 769.50 407.75 L 770.00 409.92 L 770.50 412.07 L 771.00 414.19 L 771.50 416.29 L 772.00 418.36 L 772.50 420.41 L 773.00 422.42 L 773.50 424.41 L 774.00 426.37 L 774.50 428.31 L 775.00 430.21 L 775.50 432.08 L 776.00 433.92 L 776.50 435.74 L 777.00 437.52 L 777.50 439.27 L 778.00 440.99 L 778.50 442.67 L 779.00 444.33 L 779.50 445.95 L 780.00 447.53 L 780.50 449.09 L 781.00 450.60 L 781.50 452.09 L 782.00 453.54 L 782.50 454.95 L 783.00 456.33 L 783.50 457.67 L 784.00 458.97 L 784.50 460.24 L 785.00 461.47 L 785.50 462.66 L 786.00 463.82 L 786.50 464.94 L 787.00 466.02 L 787.50 467.06 L 788.00 468.06 L 788.50 469.03 L 789.00 469.95 L 789.50 470.83 L 790.00 471.68 L 790.50 472.48 L 791.00 473.25 L 791.50 473.97 L 792.00 474.66 L 792.50 475.30 L 793.00 475.91 L 793.50 476.47 L 794.00 476.99 L 794.50 477.47 L 795.00 477.91 L 795.50 478.30 L 796.00 478.66 L 796.50 478.97 L 797.00 479.25 L 797.50 479.48 L 798.00 479.66 L 798.50 479.81 L 799.00 479.92 L 799.50 479.98 L 800.00 480.00 L 800.50 479.98 L 801.00 479.92 L 801.50 479.81 L 802.00 479.66 L 802.50 479.48 L 803.00 479.25 L 803.50 478.97 L 804.00 478.66 L 804.50 478.30 L 805.00 477.91 L 805.50 477.47 L 806.00 476.99 L 806.50 476.47 L 807.00 475.91 L 807.50 475.30 L 808.00 474.66 L 808.50 473.97 L 809.00 473.25 L 809.50 472.48 L 810.00 471.68 L 810.50 470.83 L 811.00 469.95 L 811.50 469.03 L 812.00 468.06 L 812.50 467.06 L 813.00 466.02 L 813.50 464.94 L 814.00 463.82 L 814.50 462.66 L 815.00 461.47 L 815.50 460.24 L 816.00 458.97 L 816.50 457.67 L 817.00 456.33 L 817.50 454.95 L 818.00 453.54 L 818.50 452.09 L 819.00 450.60 L 819.50 449.09 L 820.00 447.53 L 820.50 445.95 L 821.00 444.33 L 821.50 442.67 L 822.00 440.99 L 822.50 439.27 L 823.00 437.52 L 823.50 435.74 L 824.00 433.92 L 824.50 432.08 L 825.00 430.21 L 825.50 428.31 L 826.00 426.37 L 826.50 424.41 L 827.00 422.42 L 827.50 420.41 L 828.00 418.36 L 828.50 416.29 L 829.00 414.19 L 829.50 412.07 L 830.00 409.92 L 830.50 407.75 L 831.00 405.55 L 831.50 403.33 L 832.00 401.09 L 832.50 398.82 L 833.00 396.54 L 833.50 394.23 L 834.00 391.90 L 834.50 389.55 L 835.00 387.18 L 835.50 384.79 L 836.00 382.38 L 836.50 379.96 L 837.00 377.52 L 837.50 375.06 L 838.00 372.58 L 838.50 370.09 L 839.00 367.59 L 839.50 365.07 L 840.00 362.53 L 840.50 359.99 L 841.00 357.43 L 841.50 354.86 L 842.00 352.28 L 842.50 349.69 L 843.00 347.08 L 843.50 344.47 L 844.00 341.85 L 844.50 339.23 L 845.00 336.59 L 845.50 333.95 L 846.00 331.31 L 846.50 328.65 L 847.00 326.00 L 847.50 323.34 L 848.00 320.67 L 848.50 318.01 L 849.00 315.34 L 849.50 312.67 L 850.00 310.00 L 850.50 307.33 L 851.00 304.66 L 851.50 301.99 L 852.00 299.33 L 852.50 296.66 L 853.00 294.00 L 853.50 291.35 L 854.00 288.69 L 854.50 286.05 L 855.00 283.41 L 855.50 280.77 L 856.00 278.15 L 856.50 275.53 L 857.00 272.92 L 857.50 270.31 L 858.00 267.72 L 858.50 265.14 L 859.00 262.57 L 859.50 260.01 L 860.00 257.47 L 860.50 254.93 L 861.00 252.41 L 861.50 249.91 L 862.00 247.42 L 862.50 244.94 L 863.00 242.48 L 863.50 240.04 L 864.00 237.62 L 864.50 235.21 L 865.00 232.82 L 865.50 230.45 L 866.00 228.10 L 866.50 225.77 L 867.00 223.46 L 867.50 221.18 L 868.00 218.91 L 868.50 216.67 L 869.00 214.45 L 869.50 212.25 L 870.00 210.08 L 870.50 207.93 L 871.00 205.81 L 871.50 203.71 L 872.00 201.64 L 872.50 199.59 L 873.00 197.58 L 873.50 195.59 L 874.00 193.63 L 874.50 191.69 L 875.00 189.79 L 875.50 187.92 L 876.00 186.08 L 876.50 184.26 L 877.00 182.48 L 877.50 180.73 L 878.00 179.01 L 878.50 177.33 L 879.00 175.67 L 879.50 174.05 L 880.00 172.47 L 880.50 170.91 L 881.00 169.40 L 881.50 167.91 L 882.00 166.46 L 882.50 165.05 L 883.00 163.67 L 883.50 162.33 L 884.00 161.03 L 884.50 159.76 L 885.00 158.53 L 885.50 157.34 L 886.00 156.18 L 886.50 155.06 L 887.00 153.98 L 887.50 152.94 L 888.00 151.94 L 888.50 150.97 L 889.00 150.05 L 889.50 149.17 L 890.00 148.32 L 890.50 147.52 L 891.00 146.75 L 891.50 146.03 L 892.00 145.34 L 892.50 144.70 L 893.00 144.09 L 893.50 143.53 L 894.00 143.01 L 894.50 142.53 L 895.00 142.09 L 895.50 141.70 L 896.00 141.34 L 896.50 141.03 L 897.00 140.75 L 897.50 140.52 L 898.00 140.34 L 898.50 140.19 L 899.00 140.08 L 899.50 140.02 L 900.00 140.00 L 900.50 140.02 L 901.00 140.08 L 901.50 140.19 L 902.00 140.34 L 902.50 140.52 L 903.00 140.75 L 903.50 141.03 L 904.00 141.34 L 904.50 141.70 L 905.00 142.09 L 905.50 142.53 L 906.00 143.01 L 906.50 143.53 L 907.00 144.09 L 907.50 144.70 L 908.00 145.34 L 908.50 146.03 L 909.00 146.75 L 909.50 147.52 L 910.00 148.32 L 910.50 149.17 L 911.00 150.05 L 911.50 150.97 L 912.00 151.94 L 912.50 152.94 L 913.00 153.98 L 913.50 155.06 L 914.00 156.18 L 914.50 157.34 L 915.00 158.53 L 915.50 159.76 L 916.00 161.03 L 916.50 162.33 L 917.00 163.67 L 917.50 165.05 L 918.00 166.46 L 918.50 167.91 L 919.00 169.40 L 919.50 170.91 L 920.00 172.47 L 920.50 174.05 L 921.00 175.67 L 921.50 177.33 L 922.00 179.01 L 922.50 180.73 L 923.00 182.48 L 923.50 184.26 L 924.00 186.08 L 924.50 187.92 L 925.00 189.79 L 925.50 191.69 L 926.00 193.63 L 926.50 195.59 L 927.00 197.58 L 927.50 199.59 L 928.00 201.64 L 928.50 203.71 L 929.00 205.81 L 929.50 207.93 L 930.00 210.08 L 930.50 212.25 L 931.00 214.45 L 931.50 216.67 L 932.00 218.91 L 932.50 221.18 L 933.00 223.46 L 933.50 225.77 L 934.00 228.10 L 934.50 230.45 L 935.00 232.82 L 935.50 235.21 L 936.00 237.62 L 936.50 240.04 L 937.00 242.48 L 937.50 244.94 L 938.00 247.42 L 938.50 249.91 L 939.00 252.41 L 939.50 254.93 L 940.00 257.47 L 940.50 260.01 L 941.00 262.57 L 941.50 265.14 L 942.00 267.72 L 942.50 270.31 L 943.00 272.92 L 943.50 275.53 L 944.00 278.15 L 944.50 280.77 L 945.00 283.41 L 945.50 286.05 L 946.00 288.69 L 946.50 291.35 L 947.00 294.00 L 947.50 296.66 L 948.00 299.33 L 948.50 301.99 L 949.00 304.66 L 949.50 307.33 L 950.00 310.00 L 950.50 312.67 L 951.00 315.34 L 951.50 318.01 L 952.00 320.67 L 952.50 323.34 L 953.00 326.00 L 953.50 328.65 L 954.00 331.31 L 954.50 333.95 L 955.00 336.59 L 955.50 339.23 L 956.00 341.85 L 956.50 344.47 L 957.00 347.08 L 957.50 349.69 L 958.00 352.28 L 958.50 354.86 L 959.00 357.43 L 959.50 359.99 L 960.00 362.53 L 960.50 365.07 L 961.00 367.59 L 961.50 370.09 L 962.00 372.58 L 962.50 375.06 L 963.00 377.52 L 963.50 379.96 L 964.00 382.38 L 964.50 384.79 L 965.00 387.18 L 965.50 389.55 L 966.00 391.90 L 966.50 394.23 L 967.00 396.54 L 967.50 398.82 L 968.00 401.09 L 968.50 403.33 L 969.00 405.55 L 969.50 407.75 L 970.00 409.92 L 970.50 412.07 L 971.00 414.19 L 971.50 416.29 L 972.00 418.36 L 972.50 420.41 L 973.00 422.42 L 973.50 424.41 L 974.00 426.37 L 974.50 428.31 L 975.00 430.21 L 975.50 432.08 L 976.00 433.92 L 976.50 435.74 L 977.00 437.52 L 977.50 439.27 L 978.00 440.99 L 978.50 442.67 L 979.00 444.33 L 979.50 445.95 L 980.00 447.53 L 980.50 449.09 L 981.00 450.60 L 981.50 452.09 L 982.00 453.54 L 982.50 454.95 L 983.00 456.33 L 983.50 457.67 L 984.00 458.97 L 984.50 460.24 L 985.00 461.47 L 985.50 462.66 L 986.00 463.82 L 986.50 464.94 L 987.00 466.02 L 987.50 467.06 L 988.00 468.06 L 988.50 469.03 L 989.00 469.95 L 989.50 470.83 L 990.00 471.68 L 990.50 472.48 L 991.00 473.25 L 991.50 473.97 L 992.00 474.66 L 992.50 475.30 L 993.00 475.91 L 993.50 476.47 L 994.00 476.99 L 994.50 477.47 L 995.00 477.91 L 995.50 478.30 L 996.00 478.66 L 996.50 478.97 L 997.00 479.25 L 997.50 479.48 L 998.00 479.66 L 998.50 479.81 L 999.00 479.92 L 999.50 479.98 L 1000.00 480.00" fill="none" stroke="#086fa0" stroke-width="2.5" stroke-linejoin="round" stroke-dasharray="7 5"/><line x1="100" y1="310" x2="100" y2="140" stroke="#0f766e" stroke-width="1.5"/><circle cx="100" cy="140" r="5" fill="white" stroke="#0f766e" stroke-width="2.5"/><line x1="175" y1="310" x2="175" y2="430.20815280171314" stroke="#0f766e" stroke-width="1.5"/><circle cx="175" cy="430.20815280171314" r="5" fill="white" stroke="#0f766e" stroke-width="2.5"/><line x1="250" y1="310" x2="250" y2="309.99999999999994" stroke="#0f766e" stroke-width="1.5"/><circle cx="250" cy="309.99999999999994" r="5" fill="white" stroke="#0f766e" stroke-width="2.5"/><line x1="325" y1="310" x2="325" y2="189.79184719828686" stroke="#0f766e" stroke-width="1.5"/><circle cx="325" cy="189.79184719828686" r="5" fill="white" stroke="#0f766e" stroke-width="2.5"/><line x1="400" y1="310" x2="400" y2="480" stroke="#0f766e" stroke-width="1.5"/><circle cx="400" cy="480" r="5" fill="white" stroke="#0f766e" stroke-width="2.5"/><line x1="475" y1="310" x2="475" y2="189.79184719828692" stroke="#0f766e" stroke-width="1.5"/><circle cx="475" cy="189.79184719828692" r="5" fill="white" stroke="#0f766e" stroke-width="2.5"/><line x1="550" y1="310" x2="550" y2="309.99999999999983" stroke="#0f766e" stroke-width="1.5"/><circle cx="550" cy="309.99999999999983" r="5" fill="white" stroke="#0f766e" stroke-width="2.5"/><line x1="625" y1="310" x2="625" y2="430.20815280171325" stroke="#0f766e" stroke-width="1.5"/><circle cx="625" cy="430.20815280171325" r="5" fill="white" stroke="#0f766e" stroke-width="2.5"/><line x1="700" y1="310" x2="700" y2="140" stroke="#0f766e" stroke-width="1.5"/><circle cx="700" cy="140" r="5" fill="white" stroke="#0f766e" stroke-width="2.5"/><line x1="775" y1="310" x2="775" y2="430.20815280171314" stroke="#0f766e" stroke-width="1.5"/><circle cx="775" cy="430.20815280171314" r="5" fill="white" stroke="#0f766e" stroke-width="2.5"/><line x1="850" y1="310" x2="850" y2="310.00000000000006" stroke="#0f766e" stroke-width="1.5"/><circle cx="850" cy="310.00000000000006" r="5" fill="white" stroke="#0f766e" stroke-width="2.5"/><line x1="924.9999999999999" y1="310" x2="924.9999999999999" y2="189.7918471982868" stroke="#0f766e" stroke-width="1.5"/><circle cx="924.9999999999999" cy="189.7918471982868" r="5" fill="white" stroke="#0f766e" stroke-width="2.5"/><line x1="1000" y1="310" x2="1000" y2="480" stroke="#0f766e" stroke-width="1.5"/><circle cx="1000" cy="480" r="5" fill="white" stroke="#0f766e" stroke-width="2.5"/><line x1="80" y1="623" x2="135" y2="623" stroke="#b85d13" stroke-width="3"/><text x="150" y="629" font-size="20" fill="#b85d13" text-anchor="start" font-weight="400">30 kHz input</text><line x1="430" y1="623" x2="485" y2="623" stroke="#086fa0" stroke-width="3" stroke-dasharray="7 5"/><text x="500" y="629" font-size="20" fill="#086fa0" text-anchor="start" font-weight="400">18 kHz alias</text><circle cx="820" cy="623" r="5" fill="white" stroke="#0f766e" stroke-width="2.5"/><text x="837" y="629" font-size="20" fill="#0f766e" text-anchor="start" font-weight="400">sample instants</text><text x="35" y="691" font-size="19" fill="#536777" text-anchor="start" font-weight="400">cos(2π × 30,000 × n/48,000) = cos(2π × 18,000 × n/48,000), for every integer n.</text><text x="35" y="720" font-size="19" fill="#536777" text-anchor="start" font-weight="400">Samples alone cannot decide which input produced them. Filter unwanted input bandwidth</text><text x="35" y="749" font-size="19" fill="#536777" text-anchor="start" font-weight="400">before sampling. The 24 kHz Nyquist boundary is not a practical filter’s entire passband.</text></svg>
